<mxfile host="app.diagrams.net" modified="2024-03-15T15:15:26.756Z" agent="Mozilla/5.0 (Macintosh; Intel Mac OS X 10_15_7) AppleWebKit/537.36 (KHTML, like Gecko) Chrome/122.0.0.0 Safari/537.36" version="24.0.6" etag="1gJxyJaMl8jksYM2KD2I" type="github">
  <diagram name="PÃ¡gina-1" id="Va9m4_eb0CdB3JMclIC6">
    <mxGraphModel>
      <root>
        <mxCell id="0" />
        <mxCell id="1" parent="0" />
      </root>
    </mxGraphModel>
  </diagram>
</mxfile>
